<svg width="56" height="56" viewBox="0 0 56 56" fill="none" xmlns="http://www.w3.org/2000/svg">
<g opacity="0.4">
<circle r="27" transform="matrix(-1 0 0 1 28 28)" fill="white" stroke="#008024" stroke-width="2"/>
<path d="M24.5002 28.7998L30.2002 34.3998C30.6002 34.7998 31.2002 34.7998 31.6002 34.3998C32.0002 33.9998 32.0002 33.3998 31.6002 32.9998L26.7002 27.9998L31.6002 22.9998C32.0002 22.5998 32.0002 21.9998 31.6002 21.5998C31.4002 21.3998 31.2002 21.2998 30.9002 21.2998C30.6002 21.2998 30.4002 21.3998 30.2002 21.5998L24.5002 27.1998C24.1002 27.6998 24.1002 28.2998 24.5002 28.7998C24.5002 28.6998 24.5002 28.6998 24.5002 28.7998Z" fill="#008024"/>
</g>
</svg>
