<svg width="36" height="36" viewBox="0 0 36 36" fill="none" xmlns="http://www.w3.org/2000/svg">
<path d="M30.5772 4.31802C28.8198 2.56066 25.9706 2.56066 24.2132 4.31802L21.0305 7.50078L19.9697 6.43999C19.3839 5.8542 18.4341 5.8542 17.8483 6.43999C17.2626 7.02577 17.2626 7.97552 17.8483 8.56131L26.3336 17.0466C26.9194 17.6324 27.8692 17.6324 28.4549 17.0466C29.0407 16.4608 29.0407 15.5111 28.4549 14.9253L27.3944 13.8647L30.5772 10.682C32.3345 8.92462 32.3345 6.07538 30.5772 4.31802Z" fill="white"/>
<path fill-rule="evenodd" clip-rule="evenodd" d="M17.8946 10.6367L6.22733 22.304C4.84188 23.6895 4.54868 25.7536 5.34774 27.4262L3 29.774L5.12132 31.8953L7.46906 29.5476C9.14175 30.3466 11.2058 30.0534 12.5913 28.668L24.2586 17.0007L17.8946 10.6367ZM20.0159 17.0007L17.8946 14.8794L8.34865 24.4253C7.76287 25.0111 7.76287 25.9609 8.34865 26.5466C8.93444 27.1324 9.88419 27.1324 10.47 26.5466L20.0159 17.0007Z" fill="white"/>
</svg>
