<svg width="18" height="19" viewBox="0 0 18 19" fill="none" xmlns="http://www.w3.org/2000/svg">
<path d="M13.4999 3.86005C12.3065 2.66658 10.6878 1.99609 8.99995 1.99609C7.31212 1.99609 5.69342 2.66658 4.49995 3.86005C3.30647 5.05353 2.63599 6.67223 2.63599 8.36005C2.63599 10.0479 3.30647 11.6666 4.49995 12.8601L8.45245 16.8201C8.52217 16.8904 8.60512 16.9461 8.69652 16.9842C8.78791 17.0223 8.88594 17.0419 8.98495 17.0419C9.08396 17.0419 9.18198 17.0223 9.27338 16.9842C9.36477 16.9461 9.44772 16.8904 9.51745 16.8201L13.4999 12.8226C14.6884 11.634 15.3561 10.0221 15.3561 8.3413C15.3561 6.66051 14.6884 5.04856 13.4999 3.86005ZM12.4274 11.7501L8.99995 15.1926L5.57245 11.7501C4.89531 11.0723 4.4343 10.209 4.24772 9.26927C4.06113 8.32956 4.15734 7.35561 4.52418 6.47057C4.89101 5.58552 5.51201 4.82909 6.30867 4.29691C7.10533 3.76473 8.04189 3.48069 8.99995 3.48069C9.95801 3.48069 10.8946 3.76473 11.6912 4.29691C12.4879 4.82909 13.1089 5.58552 13.4757 6.47057C13.8426 7.35561 13.9388 8.32956 13.7522 9.26927C13.5656 10.209 13.1046 11.0723 12.4274 11.7501ZM6.74995 6.05755C6.14448 6.66488 5.80449 7.48748 5.80449 8.34505C5.80449 9.20263 6.14448 10.0252 6.74995 10.6326C7.19977 11.0831 7.77264 11.3909 8.39668 11.5171C9.02073 11.6433 9.66816 11.5825 10.2578 11.3422C10.8473 11.1018 11.3528 10.6928 11.7108 10.1662C12.0688 9.63972 12.2633 9.01921 12.2699 8.38256C12.2733 7.95746 12.1914 7.536 12.0291 7.1431C11.8668 6.75019 11.6274 6.39382 11.3249 6.09505C11.0277 5.79099 10.6733 5.54871 10.282 5.38215C9.89077 5.2156 9.47045 5.12806 9.04525 5.12458C8.62004 5.12109 8.19835 5.20173 7.80443 5.36185C7.41051 5.52196 7.05214 5.7584 6.74995 6.05755ZM10.2674 9.56755C9.98323 9.85611 9.60761 10.037 9.20479 10.0792C8.80198 10.1215 8.397 10.0225 8.05908 9.79925C7.72116 9.57597 7.4713 9.24224 7.3522 8.85512C7.23311 8.468 7.25218 8.05153 7.40617 7.67692C7.56015 7.30231 7.83947 6.99282 8.19639 6.80136C8.5533 6.6099 8.96564 6.54836 9.3629 6.62727C9.76016 6.70617 10.1177 6.92062 10.3743 7.23395C10.631 7.54728 10.7708 7.94003 10.7699 8.34505C10.759 8.80801 10.5648 9.2477 10.2299 9.56755H10.2674Z" fill="#008024"/>
</svg>
