<svg width="18" height="19" viewBox="0 0 18 19" fill="none" xmlns="http://www.w3.org/2000/svg">
<path fill-rule="evenodd" clip-rule="evenodd" d="M2.25732 4.87891C2.25732 4.46469 2.59311 4.12891 3.00732 4.12891H15C15.4142 4.12891 15.75 4.46469 15.75 4.87891V13.3721C15.75 14.2005 15.0784 14.8721 14.25 14.8721H3.75C2.92157 14.8721 2.25 14.2005 2.25 13.3721V5.12207C2.25 5.08636 2.2525 5.05122 2.25732 5.01684V4.87891ZM3.75 6.54672V13.3721H14.25V6.54698L10.5911 10.2059C9.71244 11.0845 8.28782 11.0845 7.40914 10.2059L3.75 6.54672ZM4.92924 5.60464H13.071L9.53046 9.1452C9.23757 9.43809 8.76269 9.43809 8.4698 9.1452L4.92924 5.60464Z" fill="#008024"/>
</svg>
