<svg width="24" height="24" viewBox="0 0 24 24" fill="none" xmlns="http://www.w3.org/2000/svg">
<path d="M22 6C22 5.44772 21.5523 5 21 5H3C2.44772 5 2 5.44772 2 6C2 6.55228 2.44772 7 3 7H21C21.5523 7 22 6.55228 22 6Z" fill="#082269"/>
<path d="M22 12.0322C22 11.4799 21.5523 11.0322 21 11.0322H3C2.44772 11.0322 2 11.4799 2 12.0322C2 12.5845 2.44772 13.0322 3 13.0322H21C21.5523 13.0322 22 12.5845 22 12.0322Z" fill="#082269"/>
<path d="M21 17.0645C21.5523 17.0645 22 17.5122 22 18.0645C22 18.6167 21.5523 19.0645 21 19.0645H3C2.44772 19.0645 2 18.6167 2 18.0645C2 17.5122 2.44772 17.0645 3 17.0645H21Z" fill="#082269"/>
</svg>
