<svg width="24" height="25" viewBox="0 0 24 25" fill="none" xmlns="http://www.w3.org/2000/svg">
<path d="M22.765 17.7108H5.9908C5.67303 17.7108 5.36827 17.5845 5.14357 17.3598C4.91887 17.135 4.79264 16.8301 4.79264 16.5123C4.79264 16.1944 4.91887 15.8895 5.14357 15.6648C5.36827 15.44 5.67303 15.3137 5.9908 15.3137H18.4996C19.3007 15.3138 20.0789 15.0461 20.7106 14.5532C21.3423 14.0602 21.7913 13.3703 21.9862 12.593L23.9632 4.81444C24.0081 4.63755 24.012 4.45274 23.9746 4.27411C23.9372 4.09547 23.8595 3.92774 23.7475 3.78369C23.631 3.63595 23.4813 3.51773 23.3106 3.43861C23.14 3.35948 22.953 3.32168 22.765 3.32825H5.70324C5.45604 2.62884 4.99864 2.02303 4.39373 1.59388C3.78882 1.16472 3.06602 0.933237 2.32443 0.931152H1.19816C0.880388 0.931152 0.575631 1.05743 0.350933 1.2822C0.126234 1.50697 0 1.81182 0 2.1297C0 2.44757 0.126234 2.75243 0.350933 2.9772C0.575631 3.20197 0.880388 3.32825 1.19816 3.32825H2.32443C2.59813 3.32027 2.86631 3.40631 3.08431 3.57205C3.30231 3.73778 3.45699 3.97321 3.52259 4.23914L3.59448 4.81444L5.66729 12.9166C4.71398 12.9595 3.81675 13.3795 3.17299 14.0842C2.52923 14.7888 2.19167 15.7204 2.23457 16.6741C2.27747 17.6277 2.69731 18.5252 3.40174 19.1692C4.10617 19.8131 5.03748 20.1508 5.9908 20.1079H6.20647C6.00941 20.651 5.94609 21.2336 6.02187 21.8064C6.09764 22.3791 6.31028 22.9252 6.64178 23.3983C6.97328 23.8715 7.41387 24.2577 7.92625 24.5244C8.43863 24.7911 9.0077 24.9303 9.58528 24.9303C10.1629 24.9303 10.7319 24.7911 11.2443 24.5244C11.7567 24.2577 12.1973 23.8715 12.5288 23.3983C12.8603 22.9252 13.0729 22.3791 13.1487 21.8064C13.2245 21.2336 13.1611 20.651 12.9641 20.1079H15.7917C15.5947 20.651 15.5314 21.2336 15.6071 21.8064C15.6829 22.3791 15.8956 22.9252 16.2271 23.3983C16.5586 23.8715 16.9991 24.2577 17.5115 24.5244C18.0239 24.7911 18.593 24.9303 19.1706 24.9303C19.7481 24.9303 20.3172 24.7911 20.8296 24.5244C21.342 24.2577 21.7826 23.8715 22.114 23.3983C22.4455 22.9252 22.6582 22.3791 22.734 21.8064C22.8097 21.2336 22.7464 20.651 22.5494 20.1079H22.765C23.0828 20.1079 23.3876 19.9816 23.6123 19.7569C23.837 19.5321 23.9632 19.2272 23.9632 18.9094C23.9632 18.5915 23.837 18.2866 23.6123 18.0619C23.3876 17.8371 23.0828 17.7108 22.765 17.7108ZM21.2314 5.72534L19.6618 12.0057C19.5962 12.2717 19.4415 12.5071 19.2235 12.6728C19.0055 12.8386 18.7373 12.9246 18.4636 12.9166H8.12352L6.32628 5.72534H21.2314ZM9.58528 22.505C9.3483 22.505 9.11665 22.4347 8.91961 22.303C8.72258 22.1713 8.56901 21.9841 8.47832 21.7651C8.38764 21.5461 8.36391 21.3051 8.41014 21.0726C8.45637 20.8401 8.57048 20.6266 8.73805 20.459C8.90562 20.2913 9.11911 20.1772 9.35153 20.1309C9.58395 20.0847 9.82486 20.1084 10.0438 20.1991C10.2627 20.2899 10.4499 20.4435 10.5815 20.6406C10.7132 20.8377 10.7834 21.0694 10.7834 21.3065C10.7834 21.6243 10.6572 21.9292 10.4325 22.154C10.2078 22.3787 9.90305 22.505 9.58528 22.505ZM19.1706 22.505C18.9336 22.505 18.7019 22.4347 18.5049 22.303C18.3079 22.1713 18.1543 21.9841 18.0636 21.7651C17.9729 21.5461 17.9492 21.3051 17.9954 21.0726C18.0416 20.8401 18.1558 20.6266 18.3233 20.459C18.4909 20.2913 18.7044 20.1772 18.9368 20.1309C19.1692 20.0847 19.4101 20.1084 19.6291 20.1991C19.848 20.2899 20.0351 20.4435 20.1668 20.6406C20.2984 20.8377 20.3687 21.0694 20.3687 21.3065C20.3687 21.6243 20.2425 21.9292 20.0178 22.154C19.7931 22.3787 19.4883 22.505 19.1706 22.505Z" fill="#082269"/>
</svg>
