<svg width="18" height="19" viewBox="0 0 18 19" fill="none" xmlns="http://www.w3.org/2000/svg">
<path d="M14.58 10.2495C14.415 10.2495 14.2425 10.197 14.0775 10.1595C13.7433 10.0859 13.415 9.98815 13.095 9.86703C12.747 9.74046 12.3646 9.74703 12.0212 9.88549C11.6778 10.0239 11.3978 10.2845 11.235 10.617L11.07 10.9545C10.3395 10.5482 9.66819 10.0435 9.07495 9.45453C8.48603 8.8613 7.98132 8.19003 7.57495 7.45953L7.88995 7.24953C8.22248 7.08672 8.48304 6.80668 8.6215 6.4633C8.75996 6.11992 8.76653 5.73747 8.63995 5.38953C8.52087 5.06885 8.42316 4.74063 8.34745 4.40703C8.30995 4.24203 8.27995 4.06954 8.25745 3.89704C8.16638 3.36875 7.88967 2.89034 7.47717 2.54796C7.06467 2.20559 6.54348 2.02174 6.00745 2.02953H3.75745C3.43423 2.0265 3.11414 2.09314 2.81899 2.22493C2.52383 2.35672 2.26054 2.55056 2.04703 2.79325C1.83352 3.03594 1.6748 3.32178 1.58169 3.63132C1.48858 3.94086 1.46326 4.26683 1.50745 4.58703C1.90701 7.72907 3.34197 10.6484 5.58569 12.884C7.82941 15.1196 10.754 16.5439 13.8975 16.932H14.1825C14.7355 16.9328 15.2695 16.7299 15.6825 16.362C15.9197 16.1498 16.1093 15.8897 16.2386 15.5988C16.3678 15.3079 16.4339 14.9929 16.4325 14.6745V12.4245C16.4233 11.9036 16.2336 11.4019 15.8957 11.0053C15.5579 10.6086 15.0928 10.3415 14.58 10.2495ZM14.955 14.7495C14.9548 14.856 14.932 14.9613 14.888 15.0583C14.8441 15.1552 14.78 15.2418 14.7 15.312C14.6161 15.3844 14.5182 15.4384 14.4123 15.4707C14.3063 15.503 14.1949 15.5128 14.085 15.4995C11.2761 15.1394 8.66713 13.8544 6.66949 11.8473C4.67185 9.84011 3.39926 7.22504 3.05245 4.41453C3.04052 4.30467 3.05098 4.19353 3.0832 4.08783C3.11543 3.98212 3.16876 3.88405 3.23995 3.79954C3.31024 3.71953 3.39675 3.65542 3.49374 3.61145C3.59073 3.56748 3.69596 3.54467 3.80245 3.54453H6.05245C6.22686 3.54065 6.39717 3.59769 6.53406 3.70584C6.67095 3.81398 6.76586 3.96646 6.80245 4.13703C6.83245 4.34203 6.86995 4.54453 6.91495 4.74453C7.00159 5.13989 7.1169 5.52842 7.25995 5.90703L6.20995 6.39454C6.12018 6.43573 6.03942 6.49424 5.97232 6.56673C5.90522 6.63922 5.8531 6.72425 5.81896 6.81693C5.78481 6.90962 5.76931 7.00813 5.77334 7.10683C5.77737 7.20552 5.80086 7.30244 5.84245 7.39203C6.92185 9.7041 8.78039 11.5626 11.0925 12.642C11.275 12.717 11.4799 12.717 11.6625 12.642C11.756 12.6086 11.8419 12.5569 11.9153 12.4899C11.9887 12.423 12.0481 12.3421 12.09 12.252L12.555 11.202C12.9427 11.3407 13.3384 11.4559 13.74 11.547C13.94 11.592 14.1425 11.6295 14.3475 11.6595C14.518 11.6961 14.6705 11.791 14.7786 11.9279C14.8868 12.0648 14.9438 12.2351 14.94 12.4095L14.955 14.7495Z" fill="#008024"/>
</svg>
