<svg width="18" height="18" viewBox="0 0 18 18" fill="none" xmlns="http://www.w3.org/2000/svg">
<g opacity="0.8">
<path d="M16.6985 1.82108C16.485 1.64343 16.2273 1.527 15.9528 1.48418C15.6784 1.44136 15.3974 1.47376 15.1399 1.57792L1.69924 7.00443C1.41181 7.1227 1.16713 7.32558 0.997695 7.58615C0.828257 7.84672 0.742071 8.15266 0.750574 8.46335C0.759077 8.77405 0.861868 9.07482 1.0453 9.32573C1.22874 9.57665 1.48414 9.76584 1.77762 9.8682L4.49637 10.8138L6.01174 15.825C6.03234 15.8919 6.06222 15.9556 6.10053 16.0143C6.10634 16.0233 6.11454 16.03 6.12072 16.0387C6.16497 16.1005 6.21846 16.155 6.27929 16.2005C6.29659 16.2137 6.31316 16.2261 6.33166 16.2378C6.40286 16.285 6.48171 16.3196 6.5647 16.3399L6.57358 16.3406L6.57862 16.3428C6.62852 16.3529 6.67931 16.3581 6.73023 16.3582C6.73513 16.3582 6.73948 16.3558 6.74433 16.3557C6.82118 16.3544 6.89735 16.3412 6.97015 16.3165C6.98708 16.3107 7.00159 16.3011 7.01803 16.2941C7.07231 16.2716 7.12374 16.2428 7.17124 16.2082C7.20929 16.1761 7.24734 16.1441 7.28541 16.1121L9.31203 13.8745L12.3347 16.2161C12.6008 16.4233 12.9284 16.5359 13.2656 16.5362C13.619 16.5357 13.9615 16.4138 14.2357 16.1908C14.5099 15.9678 14.699 15.6574 14.7715 15.3115L17.2185 3.29911C17.274 3.02875 17.2549 2.7484 17.1633 2.48805C17.0717 2.22771 16.911 1.99716 16.6985 1.82108ZM7.02762 11.0525C6.92363 11.1561 6.85254 11.2881 6.82327 11.4319L6.59114 12.5599L6.0031 10.6151L9.05203 9.02741L7.02762 11.0525ZM13.2539 15.0303L9.68191 12.2632C9.53247 12.1477 9.345 12.0928 9.15687 12.1093C8.96874 12.1259 8.79375 12.2127 8.66677 12.3525L8.01772 13.0689L8.2471 11.9541L13.5593 6.64186C13.6861 6.51523 13.7634 6.34738 13.7771 6.1687C13.7908 5.99003 13.7401 5.81235 13.6341 5.66785C13.5281 5.52335 13.3739 5.42158 13.1994 5.38099C13.0248 5.34039 12.8415 5.36365 12.6826 5.44655L5.05868 9.41602L2.26541 8.39384L15.7493 2.99953L13.2539 15.0303Z" fill="white"/>
</g>
</svg>
