<svg width="36" height="36" viewBox="0 0 36 36" fill="none" xmlns="http://www.w3.org/2000/svg">
<path d="M31.5 16.5002H25.59C25.4855 16.486 25.3795 16.486 25.275 16.5002H25.02C24.9416 16.5449 24.8664 16.595 24.795 16.6502C24.7115 16.7053 24.6313 16.7655 24.555 16.8302C24.5049 16.8915 24.4598 16.9567 24.42 17.0252C24.3513 17.1197 24.291 17.2201 24.24 17.3252L21.84 23.9402L15.585 6.99019C15.4799 6.70062 15.2882 6.45042 15.0359 6.27361C14.7836 6.0968 14.4831 6.00195 14.175 6.00195C13.8669 6.00195 13.5663 6.0968 13.3141 6.27361C13.0618 6.45042 12.8701 6.70062 12.765 6.99019L9.3 16.5002H4.5C4.10218 16.5002 3.72064 16.6582 3.43934 16.9395C3.15804 17.2208 3 17.6024 3 18.0002C3 18.398 3.15804 18.7795 3.43934 19.0609C3.72064 19.3422 4.10218 19.5002 4.5 19.5002H10.38H10.725H10.95C11.0353 19.4591 11.1157 19.4088 11.19 19.3502C11.2735 19.295 11.3537 19.2349 11.43 19.1702L11.565 18.9752C11.6365 18.8826 11.6969 18.7819 11.745 18.6752L14.175 11.8802L20.415 29.0102C20.5198 29.3001 20.7114 29.5507 20.9637 29.7278C21.216 29.905 21.5167 30.0001 21.825 30.0002C22.1333 30.0001 22.434 29.905 22.6863 29.7278C22.9386 29.5507 23.1302 29.3001 23.235 29.0102L26.685 19.5002H31.5C31.8978 19.5002 32.2794 19.3422 32.5607 19.0609C32.842 18.7795 33 18.398 33 18.0002C33 17.6024 32.842 17.2208 32.5607 16.9395C32.2794 16.6582 31.8978 16.5002 31.5 16.5002Z" fill="white"/>
</svg>
